<svg xmlns="http://www.w3.org/2000/svg" viewBox="0 0 644 770" width="644" height="770">
	<defs>
		<linearGradient id="grd1" gradientUnits="userSpaceOnUse"  x1="344.63" y1="749.992" x2="398.948" y2="82.168">
			<stop offset="0" stop-color="#808080" stop-opacity="0.25" />
			<stop offset="0.54" stop-color="#808080" stop-opacity="0.12" />
			<stop offset="1" stop-color="#808080" stop-opacity="0.1" />
		</linearGradient>
		<linearGradient id="grd2" gradientUnits="userSpaceOnUse"  x1="416977.724" y1="598768.948" x2="416977.724" y2="95343.365">
			<stop offset="0" stop-color="#808080" stop-opacity="0.25" />
			<stop offset="0.54" stop-color="#808080" stop-opacity="0.12" />
			<stop offset="1" stop-color="#808080" stop-opacity="0.1" />
		</linearGradient>
		<linearGradient id="grd3" gradientUnits="userSpaceOnUse"  x1="254490.243" y1="481929.599" x2="254490.243" y2="33324.35">
			<stop offset="0" stop-color="#808080" stop-opacity="0.25" />
			<stop offset="0.54" stop-color="#808080" stop-opacity="0.12" />
			<stop offset="1" stop-color="#808080" stop-opacity="0.1" />
		</linearGradient>
		<linearGradient id="grd4" gradientUnits="userSpaceOnUse"  x1="313.412" y1="247.875" x2="305.42" y2="93.719">
			<stop offset="0" stop-color="#000000" stop-opacity="0.12" />
			<stop offset="0.55" stop-color="#000000" stop-opacity="0.09" />
			<stop offset="1" stop-color="#000000" stop-opacity="0.02" />
		</linearGradient>
		<linearGradient id="grd5" gradientUnits="userSpaceOnUse"  x1="23239.828" y1="42390.76" x2="23239.828" y2="38113.6">
			<stop offset="0" stop-color="#808080" stop-opacity="0.25" />
			<stop offset="0.54" stop-color="#808080" stop-opacity="0.12" />
			<stop offset="1" stop-color="#808080" stop-opacity="0.1" />
		</linearGradient>
	</defs>
	<style>
		tspan { white-space:pre }
		.shp0 { fill: url(#grd1) } 
		.shp1 { fill: #301d6e } 
		.shp2 { fill: url(#grd2) } 
		.shp3 { fill: #e0e0e0 } 
		.shp4 { fill: url(#grd3) } 
		.shp5 { fill: #ffffff } 
		.shp6 { fill: url(#grd4) } 
		.shp7 { fill: #ffffff;stroke: #ffffff } 
		.shp8 { fill: url(#grd5) } 
		.shp9 { fill: #69f0ae } 
	</style>
	<path id="Layer" class="shp0" d="M589.57 770L99.95 729.85L153.91 62.28L643.53 102.43L589.57 770L589.57 770Z" />
	<path id="Layer" class="shp1" d="M583.7 760.47L107.27 721.39L159.78 71.81L636.21 110.88L583.7 760.47L583.7 760.47Z" />
	<path id="Layer" class="shp2" d="M611.86 657.75L129.44 751.09L4 93.34L486.42 0L611.86 657.75L611.86 657.75Z" />
	<path id="Layer" class="shp3" d="M603.67 650.15L134.25 740.98L12.19 100.94L481.61 10.12L603.67 650.15L603.67 650.15Z" />
	<path id="Layer" class="shp4" d="M62.31 49.68L553.55 49.68L553.55 719.46L62.31 719.46L62.31 49.68Z" />
	<path id="Layer" class="shp5" d="M68.93 58.7L546.94 58.7L546.94 710.43L68.93 710.43L68.93 58.7Z" />
	<path id="Layer" class="shp6" d="M230.01 171.15C230.53 214.76 266.06 249.69 309.36 249.15C352.66 248.61 387.36 212.84 386.82 169.22C386.74 161.16 385.42 153.16 382.92 145.5C380.41 137.84 376.75 130.61 372.06 124.06C367.37 117.51 361.71 111.71 355.26 106.87C348.82 102.03 341.67 98.21 334.07 95.53L334.31 115.87C334.36 119.37 333.73 122.85 332.44 126.11C331.15 129.36 329.23 132.34 326.8 134.85C324.37 137.37 321.46 139.39 318.25 140.78C315.04 142.18 311.58 142.93 308.08 143L308.08 143C304.58 143.02 301.12 142.35 297.88 141.04C294.64 139.72 291.69 137.78 289.19 135.33C286.7 132.88 284.71 129.96 283.34 126.75C281.97 123.53 281.25 120.08 281.21 116.58L280.97 96.24C273.44 99.1 266.39 103.09 260.06 108.08C253.74 113.07 248.22 119 243.68 125.66C239.15 132.32 235.67 139.64 233.35 147.35C231.03 155.07 229.9 163.09 230.01 171.15L230.01 171.15Z" />
	<path id="Layer" class="shp1" d="M386.85 162.84C386.85 119.22 351.75 83.84 308.44 83.84C265.13 83.84 230.03 119.2 230.03 162.84C230.02 170.9 231.24 178.91 233.65 186.6C236.06 194.3 239.63 201.57 244.24 208.18C248.85 214.79 254.45 220.66 260.83 225.57C267.22 230.49 274.32 234.4 281.89 237.17L281.89 216.83C281.89 213.33 282.57 209.87 283.9 206.64C285.23 203.4 287.19 200.46 289.65 197.98C292.11 195.5 295.04 193.53 298.26 192.17C301.49 190.82 304.94 190.11 308.44 190.09L308.44 190.09C311.94 190.11 315.39 190.82 318.62 192.17C321.84 193.53 324.77 195.5 327.23 197.98C329.69 200.46 331.65 203.4 332.98 206.64C334.31 209.87 334.99 213.33 334.99 216.83L334.99 237.18C342.56 234.41 349.66 230.5 356.05 225.58C362.43 220.66 368.03 214.8 372.64 208.19C377.25 201.58 380.83 194.3 383.24 186.61C385.65 178.92 386.87 170.9 386.85 162.84L386.85 162.84Z" />
	<path id="Layer" class="shp7" d="M308.49 182.34C291.82 182.34 278.35 168.77 278.35 151.98C278.35 135.19 291.82 121.62 308.49 121.62C325.16 121.62 338.63 135.19 338.63 151.98C338.63 168.77 325.16 182.34 308.49 182.34Z" />
	<path id="Layer" class="shp7" d="M308.44 190.09L308.44 190.09C304.94 190.11 301.49 190.82 298.26 192.17C295.04 193.53 292.11 195.5 289.65 197.98C287.19 200.46 285.23 203.4 283.9 206.64C282.57 209.87 281.89 213.33 281.89 216.83L281.89 237.18C286.14 238.71 290.51 239.88 294.96 240.66C299.41 241.44 303.92 241.83 308.44 241.83C312.96 241.83 317.47 241.44 321.92 240.66C326.37 239.88 330.74 238.71 334.99 237.18L334.99 216.83C334.99 213.33 334.31 209.87 332.98 206.64C331.65 203.4 329.69 200.46 327.23 197.98C324.77 195.5 321.84 193.53 318.62 192.17C315.39 190.82 311.94 190.11 308.44 190.09L308.44 190.09Z" />
	<path id="Layer" class="shp7" d="M278.09 150.3C277.49 149.13 276.97 147.91 276.53 146.67C276.09 145.43 275.73 144.16 275.46 142.87C275.19 141.57 275 140.27 274.91 138.95C274.81 137.64 274.8 136.32 274.88 135C274.96 133.69 275.18 132.39 275.51 131.12C275.84 129.84 276.3 128.61 276.87 127.42C277.44 126.24 278.13 125.11 278.91 124.06C279.7 123.01 280.59 122.03 281.56 121.15C285.95 117.38 291.9 116.05 297.65 115.59C303.4 115.13 309.23 115.41 314.89 114.28C317.23 113.8 319.51 113.09 321.71 112.16C323.9 111.23 326 110.08 327.97 108.74C329.94 107.39 331.77 105.85 333.44 104.14C335.1 102.43 336.59 100.56 337.89 98.56C338.25 103.01 338.61 107.56 337.76 111.92C336.91 116.28 334.67 120.62 330.89 122.92C335.47 120.79 334.97 125.79 333.98 128.78C336.25 131.54 341.76 132 342.04 135.57C342.32 139.14 342.27 142.83 340.89 146.12C339.51 149.41 340.99 155.22 337.45 155.47" />
	<path id="Layer" class="shp5" d="M332.57 122.26C332.57 122.26 353.57 124.11 338.63 155.55" />
	<path id="Layer" class="shp8" d="M113.71 574L178.64 574L178.64 639.4L113.71 639.4L113.71 574Z" />
	<path id="Layer" class="shp1" d="M119.3 579.64L173.03 579.64L173.03 633.76L119.3 633.76L119.3 579.64Z" />
	<path id="Layer" class="shp9" d="M230.13 303.38L386.85 303.38L386.85 314.66L230.13 314.66L230.13 303.38Z" />
	<path id="Layer" class="shp3" d="M230.13 319.17L494.32 319.17L494.32 330.45L230.13 330.45L230.13 319.17Z" />
	<path id="Layer" class="shp3" d="M230.13 334.95L494.32 334.95L494.32 346.23L230.13 346.23L230.13 334.95Z" />
	<path id="Layer" class="shp9" d="M230.13 444.33L386.85 444.33L386.85 455.61L230.13 455.61L230.13 444.33Z" />
	<path id="Layer" class="shp3" d="M230.13 460.11L494.32 460.11L494.32 471.39L230.13 471.39L230.13 460.11Z" />
	<path id="Layer" class="shp3" d="M230.13 475.9L494.32 475.9L494.32 487.18L230.13 487.18L230.13 475.9Z" />
	<path id="Layer" class="shp1" d="M230.13 585.27L386.85 585.27L386.85 596.55L230.13 596.55L230.13 585.27Z" />
	<path id="Layer" class="shp3" d="M230.13 601.06L494.32 601.06L494.32 612.34L230.13 612.34L230.13 601.06Z" />
	<path id="Layer" class="shp3" d="M230.13 616.85L494.32 616.85L494.32 628.13L230.13 628.13L230.13 616.85Z" />
</svg>