<svg xmlns="http://www.w3.org/2000/svg" viewBox="0 0 527 713" width="527" height="713">
	<style>
		tspan { white-space:pre }
		.shp0 { fill: #3f3d56 } 
		.shp1 { fill: #ffffff } 
		.shp2 { fill: #6c63ff } 
		.shp3 { fill: #e6e6e6 } 
		.shp4 { fill: #a0616a } 
		.shp5 { fill: #2f2e41 } 
		.shp6 { fill: #575a89 } 
		.shp7 { opacity: 0.2;fill: #000000 } 
	</style>
	<path id="Layer" class="shp0" d="M47.91 58.34C41.62 58.35 35.4 59.59 29.59 62C23.78 64.41 18.5 67.94 14.05 72.39C9.6 76.84 6.07 82.12 3.66 87.93C1.25 93.74 0.01 99.96 0 106.25L0 658.24C0.01 664.53 1.25 670.76 3.66 676.57C6.07 682.38 9.6 687.66 14.05 692.11C18.5 696.55 23.78 700.08 29.59 702.49C35.4 704.9 41.62 706.15 47.91 706.16L452.84 706.16C459.13 706.15 465.36 704.9 471.16 702.49C476.97 700.08 482.25 696.55 486.7 692.11C491.15 687.66 494.68 682.38 497.09 676.57C499.5 670.76 500.74 664.53 500.75 658.24L500.75 106.25C500.74 99.96 499.5 93.74 497.09 87.93C494.68 82.12 491.15 76.84 486.7 72.39C482.25 67.94 476.97 64.41 471.16 62C465.36 59.59 459.13 58.35 452.84 58.34L47.91 58.34Z" />
	<path id="Layer" class="shp1" d="M24.92 92.37L475.83 92.37L475.83 672.12L24.92 672.12L24.92 92.37Z" />
	<path id="Layer" class="shp2" d="M83.86 196.29L416.89 196.29L416.89 218.17L83.86 218.17L83.86 196.29Z" />
	<path id="Layer" class="shp2" d="M83.86 254.63L416.89 254.63L416.89 276.51L83.86 276.51L83.86 254.63Z" />
	<path id="Layer" class="shp2" d="M83.86 312.97L416.89 312.97L416.89 334.85L83.86 334.85L83.86 312.97Z" />
	<path id="Layer" class="shp2" d="M83.86 371.31L416.89 371.31L416.89 393.19L83.86 393.19L83.86 371.31Z" />
	<path id="Layer" class="shp2" d="M83.86 429.65L416.89 429.65L416.89 451.53L83.86 451.53L83.86 429.65Z" />
	<path id="Layer" class="shp2" d="M83.86 487.99L416.89 487.99L416.89 509.87L83.86 509.87L83.86 487.99Z" />
	<path id="Layer" class="shp2" d="M83.86 546.33L416.89 546.33L416.89 568.21L83.86 568.21L83.86 546.33Z" />
	<path id="Layer" class="shp3" d="M91.35 116.04L421.57 55.61L499.27 480.18L169.05 540.62L91.35 116.04Z" />
	<path id="Layer" class="shp2" d="M148.45 184.25L392.33 139.61L395.26 155.64L151.38 200.27L148.45 184.25Z" />
	<path id="Layer" class="shp2" d="M156.27 226.97L400.15 182.34L403.08 198.36L159.2 242.99L156.27 226.97Z" />
	<path id="Layer" class="shp2" d="M164.08 269.69L407.97 225.06L410.9 241.08L167.02 285.72L164.08 269.69Z" />
	<path id="Layer" class="shp2" d="M171.9 312.42L415.79 267.79L418.72 283.81L174.84 328.44L171.9 312.42Z" />
	<path id="Layer" class="shp2" d="M179.72 355.14L423.6 310.51L426.54 326.53L182.65 371.16L179.72 355.14Z" />
	<path id="Layer" class="shp2" d="M187.54 397.87L431.43 353.24L434.36 369.26L190.47 413.89L187.54 397.87Z" />
	<path id="Layer" class="shp2" d="M195.36 440.59L439.24 395.96L442.18 411.98L198.29 456.61L195.36 440.59Z" />
	<path id="Layer" class="shp3" d="M561.87 537.16L655.31 520.06L677.3 640.2L583.86 657.3L561.87 537.16Z" />
	<path id="Layer" class="shp1" d="M578.03 556.46L647.04 543.83L647.87 548.36L578.86 560.99L578.03 556.46Z" />
	<path id="Layer" class="shp1" d="M580.24 568.55L649.25 555.92L650.08 560.45L581.07 573.08L580.24 568.55Z" />
	<path id="Layer" class="shp1" d="M582.45 580.64L651.46 568.01L652.29 572.54L583.28 585.17L582.45 580.64Z" />
	<path id="Layer" class="shp1" d="M584.67 592.73L653.68 580.1L654.5 584.63L585.5 597.26L584.67 592.73Z" />
	<path id="Layer" class="shp1" d="M586.88 604.82L655.89 592.19L656.72 596.72L587.71 609.35L586.88 604.82Z" />
	<path id="Layer" class="shp1" d="M589.09 616.9L658.1 604.28L658.93 608.81L589.92 621.44L589.09 616.9Z" />
	<path id="Layer" class="shp1" d="M591.3 628.99L660.31 616.37L661.14 620.9L592.13 633.53L591.3 628.99Z" />
	<path id="Layer" class="shp0" d="M333.87 30.39L294.13 30.39L294.13 22.25C294.13 19.33 293.55 16.44 292.44 13.74C291.32 11.04 289.68 8.58 287.61 6.52C285.55 4.45 283.09 2.81 280.39 1.69C277.69 0.58 274.8 0 271.88 0L228.87 0C225.95 0 223.06 0.58 220.36 1.69C217.66 2.81 215.2 4.45 213.14 6.52C211.07 8.58 209.43 11.04 208.31 13.74C207.2 16.44 206.62 19.33 206.62 22.25L206.62 30.39L166.88 30.39C163.96 30.39 161.07 30.96 158.37 32.08C155.67 33.2 153.22 34.84 151.15 36.9C149.09 38.97 147.45 41.42 146.33 44.12C145.21 46.82 144.63 49.71 144.63 52.64L144.63 114.25L356.12 114.25L356.12 52.64C356.12 49.71 355.54 46.82 354.42 44.12C353.3 41.42 351.67 38.97 349.6 36.9C347.53 34.84 345.08 33.2 342.38 32.08C339.68 30.96 336.79 30.39 333.87 30.39L333.87 30.39Z" />
	<path id="Layer" class="shp0" d="M236.11 629.96C242.68 625.47 249.43 620.79 257.24 618.75C264.35 616.88 272.53 617.38 278.16 622.59C282.7 626.8 284.62 633.26 281.25 638.79C280.89 639.42 280.47 640.01 279.98 640.55C279.5 641.09 278.96 641.58 278.37 642.01C277.79 642.43 277.16 642.8 276.49 643.09C275.83 643.39 275.14 643.61 274.43 643.76C273.75 643.85 273.05 643.85 272.37 643.77C271.68 643.69 271.01 643.52 270.36 643.27C269.72 643.01 269.11 642.68 268.55 642.28C267.99 641.88 267.48 641.4 267.04 640.87C265.28 638.92 264.22 636.04 265.16 633.47C266.14 630.76 268.78 629.11 271.37 628.19C272.13 627.95 272.89 627.73 273.65 627.53C274.42 627.33 275.19 627.15 275.96 626.99C276.73 626.83 277.51 626.69 278.29 626.57C279.07 626.45 279.86 626.35 280.64 626.27L293.54 624.51L346.31 617.28L405.07 609.24C405.3 609.17 405.52 609.07 405.7 608.92C405.89 608.77 406.05 608.59 406.17 608.38C406.29 608.17 406.36 607.94 406.39 607.71C406.42 607.47 406.41 607.23 406.34 607C406.28 606.77 406.16 606.56 406.02 606.37C405.87 606.19 405.68 606.03 405.48 605.91C405.27 605.79 405.04 605.72 404.81 605.69C404.57 605.65 404.33 605.67 404.1 605.72L287.17 621.73C282.94 622.31 278.65 622.72 274.47 623.58C273.65 623.71 272.83 623.89 272.04 624.12C271.24 624.34 270.45 624.62 269.68 624.94C268.92 625.25 268.17 625.62 267.44 626.02C266.72 626.43 266.02 626.88 265.34 627.36C259.74 631.8 260.14 639.64 265.3 644.28C270.52 648.98 278.08 648.17 282.66 642.98C283.81 641.68 284.74 640.19 285.4 638.59C286.07 636.98 286.46 635.28 286.57 633.54C286.67 631.81 286.49 630.07 286.03 628.39C285.57 626.72 284.83 625.13 283.85 623.69C278.86 616.15 269.75 613.26 261.04 614.33C250.98 615.56 242.45 621.22 234.27 626.82C232.35 628.13 234.17 631.29 236.11 629.96L236.11 629.96Z" />
	<path id="Layer" class="shp4" d="M646.41 494.84L647.62 506.99C647.62 506.99 640.33 533.73 656.13 533.73C671.93 533.73 659.78 506.99 659.78 506.99L660.99 497.27L646.41 494.84Z" />
	<path id="Layer" class="shp4" d="M756.8 454.34L751.22 465.21C751.22 465.21 730.59 483.71 743.86 492.29C757.13 500.86 761.43 471.81 761.43 471.81L767.73 464.3L756.8 454.34Z" />
	<path id="Layer" class="shp5" d="M665.85 505.78L682.87 621.24L691.38 703.89C691.38 703.89 698.67 722.12 722.98 706.32L719.33 658.92L716.9 616.38C716.9 616.38 714.47 575.05 712.04 567.76C709.61 560.47 713.25 536.16 713.25 536.16L722.98 496.05L665.85 505.78Z" />
	<path id="Layer" class="shp5" d="M693.81 701.46L684.08 712.4C684.08 712.4 669.5 707.53 665.85 717.26C662.21 726.98 693.81 729.41 693.81 729.41C693.81 729.41 726.62 731.84 726.62 729.41C726.62 726.98 725.74 708.39 721.32 707.35C716.9 706.32 693.81 701.46 693.81 701.46Z" />
	<path id="Layer" class="shp5" d="M712.04 499.7L729.05 621.24L737.56 703.89C737.56 703.89 744.85 722.12 769.16 706.32L765.52 658.92L763.09 616.38C763.09 616.38 760.66 575.05 758.22 567.76C755.79 560.47 759.44 536.16 759.44 536.16L757.01 491.19L712.04 499.7Z" />
	<path id="Layer" class="shp5" d="M739.99 701.46L730.27 712.4C730.27 712.4 715.68 707.53 712.04 717.26C708.39 726.98 739.99 729.41 739.99 729.41C739.99 729.41 772.81 731.84 772.81 729.41C772.81 726.98 771.93 708.39 767.51 707.35C763.09 706.32 739.99 701.46 739.99 701.46Z" />
	<path id="Layer" class="shp4" d="M675.58 307.66C661.46 307.66 650.05 296.25 650.05 282.14C650.05 268.02 661.46 256.62 675.58 256.62C689.69 256.62 701.1 268.02 701.1 282.14C701.1 296.25 689.69 307.66 675.58 307.66Z" />
	<path id="Layer" class="shp4" d="M694.41 293.69L705.35 311.92L677.4 324.07L673.75 302.19L694.41 293.69L694.41 293.69Z" />
	<path id="Layer" class="shp6" d="M708.39 310.09C708.39 310.09 682.87 307.66 673.15 323.46L649.16 341.7C648.19 342.43 647.32 343.29 646.58 344.25C645.84 345.21 645.22 346.27 644.76 347.39C644.29 348.51 643.97 349.69 643.81 350.89C643.65 352.1 643.65 353.32 643.81 354.52L664.64 511.85L695.02 510.64L744.85 500.91L759.44 497.27L752.15 432.85C752.15 432.85 743.64 407.33 753.36 390.31L748.5 330.76L714.47 317.39L708.39 310.09Z" />
	<path id="Layer" class="shp6" d="M651.27 346.56L649.44 343.52C649.44 343.52 647.01 343.52 647.01 348.38C647.01 353.24 642.76 458.37 642.76 458.37L641.54 498.48L664.64 500.91L673.15 425.56L669.5 375.73L651.27 346.56Z" />
	<path id="Layer" class="shp6" d="M731.49 328.32L748.5 330.76C750.16 332.49 751.76 334.28 753.3 336.11C754.84 337.95 756.32 339.83 757.74 341.76C759.17 343.69 760.53 345.66 761.82 347.68C763.12 349.7 764.35 351.75 765.52 353.85C772.81 367.22 794.69 392.74 789.83 412.19C784.96 431.63 770.38 466.88 770.38 466.88L747.29 457.16C747.29 457.16 765.52 414.62 764.3 410.97C763.09 407.33 748.5 385.45 748.5 385.45L731.49 328.32Z" />
	<path id="Layer" class="shp5" d="M657.95 268.16C657.95 268.16 637.29 266.95 650.66 253.58C650.66 253.58 661.6 248.72 666.46 251.15C666.46 251.15 673.75 246.28 673.75 248.72C673.75 248.72 699.28 241.42 702.92 266.95C706.57 292.47 700.49 304.62 700.49 304.62L683.48 303.41C683.48 303.41 687.12 282.75 673.75 285.18C673.75 285.18 662.81 288.82 661.6 285.18C660.38 281.53 657.95 268.16 657.95 268.16Z" />
	<path id="Layer" class="shp7" d="M667.68 499.09L678.62 426.17L671.32 381.19L673.75 430.11L666.46 499.09L667.68 499.09L667.68 499.09Z" />
</svg>